<svg width="86" height="28" viewBox="0 0 86 28" fill="none" xmlns="http://www.w3.org/2000/svg">
<g filter="url(#filter0_d_1_5)">
<path d="M8.96591 15.2273C7.94318 15.2273 7.0625 14.9858 6.32386 14.5028C5.58523 14.0199 5.01705 13.3546 4.61932 12.5071C4.22159 11.6596 4.02273 10.6913 4.02273 9.60227C4.02273 8.49432 4.22633 7.51657 4.63352 6.66903C5.04545 5.81676 5.61837 5.15152 6.35227 4.6733C7.09091 4.19034 7.95265 3.94886 8.9375 3.94886C9.70455 3.94886 10.3958 4.09091 11.0114 4.375C11.6269 4.65909 12.1312 5.05682 12.5241 5.56818C12.9171 6.07955 13.161 6.67614 13.2557 7.35795H11.5795C11.4517 6.8608 11.1676 6.42045 10.7273 6.03693C10.2917 5.64867 9.70455 5.45455 8.96591 5.45455C8.3125 5.45455 7.73958 5.625 7.24716 5.96591C6.75947 6.30208 6.37831 6.77794 6.10369 7.39347C5.83381 8.00426 5.69886 8.72159 5.69886 9.54545C5.69886 10.3883 5.83144 11.1222 6.09659 11.7472C6.36648 12.3722 6.74527 12.8575 7.23295 13.2031C7.72538 13.5488 8.30303 13.7216 8.96591 13.7216C9.40152 13.7216 9.79688 13.6458 10.152 13.4943C10.5071 13.3428 10.8078 13.125 11.054 12.8409C11.3002 12.5568 11.4754 12.2159 11.5795 11.8182H13.2557C13.161 12.4621 12.9266 13.0421 12.5526 13.5582C12.1832 14.0696 11.6932 14.4768 11.0824 14.7798C10.4763 15.0781 9.77083 15.2273 8.96591 15.2273ZM17.3821 8.4375V15H15.706V0.454545H17.3821V5.79545H17.5241C17.7798 5.23201 18.1634 4.78456 18.6747 4.45312C19.1908 4.11695 19.8774 3.94886 20.7344 3.94886C21.4777 3.94886 22.1288 4.09801 22.6875 4.39631C23.2462 4.68987 23.6795 5.14205 23.9872 5.75284C24.2997 6.3589 24.456 7.13068 24.456 8.06818V15H22.7798V8.18182C22.7798 7.31534 22.5549 6.64536 22.1051 6.17188C21.66 5.69366 21.0421 5.45455 20.2514 5.45455C19.7022 5.45455 19.2098 5.57055 18.7741 5.80256C18.3433 6.03456 18.0024 6.37311 17.7514 6.81818C17.5052 7.26326 17.3821 7.80303 17.3821 8.4375ZM30.7326 15.2557C30.0413 15.2557 29.4139 15.1255 28.8505 14.8651C28.2871 14.5999 27.8396 14.2188 27.5082 13.7216C27.1767 13.2197 27.011 12.6136 27.011 11.9034C27.011 11.2784 27.1341 10.7718 27.3803 10.3835C27.6265 9.99053 27.9556 9.68276 28.3675 9.46023C28.7795 9.23769 29.234 9.07197 29.7312 8.96307C30.2331 8.84943 30.7373 8.75947 31.244 8.69318C31.9068 8.60795 32.4442 8.54403 32.8562 8.50142C33.2728 8.45407 33.5759 8.37595 33.7653 8.26705C33.9594 8.15814 34.0565 7.96875 34.0565 7.69886V7.64205C34.0565 6.94129 33.8647 6.39678 33.4812 6.00852C33.1024 5.62027 32.5271 5.42614 31.7553 5.42614C30.9551 5.42614 30.3278 5.60133 29.8732 5.9517C29.4187 6.30208 29.0991 6.67614 28.9144 7.07386L27.3235 6.50568C27.6076 5.8428 27.9864 5.3267 28.4599 4.95739C28.9381 4.58333 29.4589 4.32292 30.0224 4.17614C30.5906 4.02462 31.1493 3.94886 31.6985 3.94886C32.0489 3.94886 32.4513 3.99148 32.9059 4.0767C33.3652 4.1572 33.8079 4.32528 34.234 4.58097C34.6649 4.83665 35.0224 5.22254 35.3065 5.73864C35.5906 6.25473 35.7326 6.94602 35.7326 7.8125V15H34.0565V13.5227H33.9712C33.8576 13.7595 33.6682 14.0128 33.4031 14.2827C33.1379 14.5526 32.7852 14.7822 32.3448 14.9716C31.9045 15.161 31.3671 15.2557 30.7326 15.2557ZM30.9883 13.75C31.6512 13.75 32.2099 13.6198 32.6644 13.3594C33.1237 13.099 33.4693 12.7628 33.7013 12.3509C33.9381 11.9389 34.0565 11.5057 34.0565 11.0511V9.51705C33.9854 9.60227 33.8292 9.6804 33.5877 9.75142C33.351 9.81771 33.0763 9.87689 32.7638 9.92898C32.4561 9.97633 32.1554 10.0189 31.8619 10.0568C31.573 10.09 31.3387 10.1184 31.1587 10.142C30.7231 10.1989 30.3159 10.2912 29.9371 10.419C29.5631 10.5421 29.2601 10.7292 29.0281 10.9801C28.8008 11.2263 28.6871 11.5625 28.6871 11.9886C28.6871 12.571 28.9026 13.0114 29.3335 13.3097C29.7691 13.6032 30.3207 13.75 30.9883 13.75ZM43.5362 4.09091V5.51136H37.8828V4.09091H43.5362ZM39.5305 1.47727H41.2067V11.875C41.2067 12.3485 41.2753 12.7036 41.4126 12.9403C41.5547 13.1723 41.7346 13.3286 41.9524 13.4091C42.175 13.4848 42.4093 13.5227 42.6555 13.5227C42.8402 13.5227 42.9917 13.5133 43.1101 13.4943C43.2285 13.4706 43.3232 13.4517 43.3942 13.4375L43.7351 14.9432C43.6214 14.9858 43.4628 15.0284 43.2592 15.071C43.0556 15.1184 42.7976 15.142 42.4851 15.142C42.0116 15.142 41.5476 15.0402 41.093 14.8366C40.6432 14.633 40.2692 14.3229 39.9709 13.9062C39.6773 13.4896 39.5305 12.964 39.5305 12.3295V1.47727Z" fill="black"/>
<path d="M46.8814 15H45.0348L50.3757 0.454545H52.1939L57.5348 15H55.6882L51.3416 2.75568H51.228L46.8814 15ZM47.5632 9.31818H55.0064V10.8807H47.5632V9.31818ZM59.5732 19.0909V4.09091H61.1925V5.82386H61.3913C61.5144 5.63447 61.6849 5.39299 61.9027 5.09943C62.1252 4.80114 62.4425 4.53598 62.8544 4.30398C63.2711 4.06723 63.8345 3.94886 64.5447 3.94886C65.4633 3.94886 66.273 4.1785 66.9737 4.63778C67.6745 5.09706 68.2214 5.74811 68.6143 6.59091C69.0073 7.43371 69.2038 8.42803 69.2038 9.57386C69.2038 10.7292 69.0073 11.7306 68.6143 12.5781C68.2214 13.4209 67.6768 14.0743 66.9808 14.5384C66.2848 14.9976 65.4822 15.2273 64.5732 15.2273C63.8724 15.2273 63.3113 15.1113 62.8899 14.8793C62.4685 14.6425 62.1442 14.375 61.9169 14.0767C61.6896 13.7737 61.5144 13.5227 61.3913 13.3239H61.2493V19.0909H59.5732ZM61.2209 9.54545C61.2209 10.3693 61.3416 11.0961 61.5831 11.7259C61.8246 12.3509 62.1773 12.8409 62.6413 13.196C63.1054 13.5464 63.6735 13.7216 64.3459 13.7216C65.0466 13.7216 65.6314 13.5369 66.1001 13.1676C66.5736 12.7936 66.9287 12.2917 67.1655 11.6619C67.407 11.0275 67.5277 10.322 67.5277 9.54545C67.5277 8.77841 67.4093 8.08712 67.1726 7.47159C66.9406 6.85133 66.5878 6.36127 66.1143 6.00142C65.6456 5.63684 65.0561 5.45455 64.3459 5.45455C63.6641 5.45455 63.0911 5.62737 62.6271 5.97301C62.1631 6.31392 61.8127 6.79214 61.576 7.40767C61.3393 8.01847 61.2209 8.73106 61.2209 9.54545ZM71.7607 19.0909V4.09091H73.38V5.82386H73.5788C73.7019 5.63447 73.8724 5.39299 74.0902 5.09943C74.3127 4.80114 74.63 4.53598 75.0419 4.30398C75.4586 4.06723 76.022 3.94886 76.7322 3.94886C77.6508 3.94886 78.4605 4.1785 79.1612 4.63778C79.862 5.09706 80.4089 5.74811 80.8018 6.59091C81.1948 7.43371 81.3913 8.42803 81.3913 9.57386C81.3913 10.7292 81.1948 11.7306 80.8018 12.5781C80.4089 13.4209 79.8643 14.0743 79.1683 14.5384C78.4723 14.9976 77.6697 15.2273 76.7607 15.2273C76.0599 15.2273 75.4988 15.1113 75.0774 14.8793C74.656 14.6425 74.3317 14.375 74.1044 14.0767C73.8771 13.7737 73.7019 13.5227 73.5788 13.3239H73.4368V19.0909H71.7607ZM73.4084 9.54545C73.4084 10.3693 73.5291 11.0961 73.7706 11.7259C74.0121 12.3509 74.3648 12.8409 74.8288 13.196C75.2929 13.5464 75.861 13.7216 76.5334 13.7216C77.2341 13.7216 77.8189 13.5369 78.2876 13.1676C78.7611 12.7936 79.1162 12.2917 79.353 11.6619C79.5945 11.0275 79.7152 10.322 79.7152 9.54545C79.7152 8.77841 79.5968 8.08712 79.3601 7.47159C79.1281 6.85133 78.7753 6.36127 78.3018 6.00142C77.8331 5.63684 77.2436 5.45455 76.5334 5.45455C75.8516 5.45455 75.2786 5.62737 74.8146 5.97301C74.3506 6.31392 74.0002 6.79214 73.7635 7.40767C73.5268 8.01847 73.4084 8.73106 73.4084 9.54545Z" fill="#DC1212"/>
</g>
<defs>
<filter id="filter0_d_1_5" x="0.0227203" y="0.454544" width="85.3686" height="26.6364" filterUnits="userSpaceOnUse" color-interpolation-filters="sRGB">
<feFlood flood-opacity="0" result="BackgroundImageFix"/>
<feColorMatrix in="SourceAlpha" type="matrix" values="0 0 0 0 0 0 0 0 0 0 0 0 0 0 0 0 0 0 127 0" result="hardAlpha"/>
<feOffset dy="4"/>
<feGaussianBlur stdDeviation="2"/>
<feComposite in2="hardAlpha" operator="out"/>
<feColorMatrix type="matrix" values="0 0 0 0 0 0 0 0 0 0 0 0 0 0 0 0 0 0 0.25 0"/>
<feBlend mode="normal" in2="BackgroundImageFix" result="effect1_dropShadow_1_5"/>
<feBlend mode="normal" in="SourceGraphic" in2="effect1_dropShadow_1_5" result="shape"/>
</filter>
</defs>
</svg>
