<svg width="170" height="47" viewBox="0 0 170 47" fill="none" xmlns="http://www.w3.org/2000/svg">
<g filter="url(#filter0_d_1_5)">
<path d="M28.9318 10H25.4091C25.2008 8.98674 24.8362 8.09659 24.3153 7.32955C23.804 6.5625 23.179 5.91856 22.4403 5.39773C21.7112 4.86742 20.9015 4.4697 20.0114 4.20455C19.1212 3.93939 18.1932 3.80682 17.2273 3.80682C15.4659 3.80682 13.8703 4.25189 12.4403 5.14205C11.0199 6.0322 9.88826 7.34375 9.04545 9.0767C8.21212 10.8097 7.79545 12.9356 7.79545 15.4545C7.79545 17.9735 8.21212 20.0994 9.04545 21.8324C9.88826 23.5653 11.0199 24.8769 12.4403 25.767C13.8703 26.6572 15.4659 27.1023 17.2273 27.1023C18.1932 27.1023 19.1212 26.9697 20.0114 26.7045C20.9015 26.4394 21.7112 26.0464 22.4403 25.5256C23.179 24.9953 23.804 24.3466 24.3153 23.5795C24.8362 22.803 25.2008 21.9129 25.4091 20.9091H28.9318C28.6667 22.3958 28.1837 23.7263 27.483 24.9006C26.7822 26.0748 25.911 27.0739 24.8693 27.8977C23.8277 28.7121 22.6581 29.3324 21.3608 29.7585C20.0729 30.1847 18.6951 30.3977 17.2273 30.3977C14.7462 30.3977 12.5398 29.7917 10.608 28.5795C8.67614 27.3674 7.15625 25.6439 6.0483 23.4091C4.94034 21.1742 4.38636 18.5227 4.38636 15.4545C4.38636 12.3864 4.94034 9.73485 6.0483 7.5C7.15625 5.26515 8.67614 3.54167 10.608 2.32955C12.5398 1.11742 14.7462 0.511363 17.2273 0.511363C18.6951 0.511363 20.0729 0.724431 21.3608 1.15057C22.6581 1.5767 23.8277 2.2017 24.8693 3.02557C25.911 3.83996 26.7822 4.83428 27.483 6.00852C28.1837 7.17329 28.6667 8.50379 28.9318 10ZM37.522 16.875V30H34.1697V0.90909H37.522V11.5909H37.8061C38.3175 10.464 39.0845 9.56913 40.1072 8.90625C41.1394 8.2339 42.5125 7.89773 44.2266 7.89773C45.7133 7.89773 47.0154 8.19602 48.1328 8.79261C49.2502 9.37973 50.1167 10.2841 50.7322 11.5057C51.3572 12.7178 51.6697 14.2614 51.6697 16.1364V30H48.3175V16.3636C48.3175 14.6307 47.8677 13.2907 46.968 12.3438C46.0779 11.3873 44.8421 10.9091 43.2607 10.9091C42.1622 10.9091 41.1773 11.1411 40.3061 11.6051C39.4444 12.0691 38.7625 12.7462 38.2607 13.6364C37.7682 14.5265 37.522 15.6061 37.522 16.875ZM64.223 30.5114C62.8404 30.5114 61.5857 30.2509 60.4588 29.7301C59.3319 29.1998 58.437 28.4375 57.7741 27.4432C57.1113 26.4394 56.7798 25.2273 56.7798 23.8068C56.7798 22.5568 57.026 21.5436 57.5185 20.767C58.0109 19.9811 58.669 19.3655 59.4929 18.9205C60.3168 18.4754 61.2259 18.1439 62.2202 17.9261C63.224 17.6989 64.2325 17.5189 65.2457 17.3864C66.5715 17.2159 67.6463 17.0881 68.4702 17.0028C69.3035 16.9081 69.9096 16.7519 70.2884 16.5341C70.6766 16.3163 70.8707 15.9375 70.8707 15.3977V15.2841C70.8707 13.8826 70.4872 12.7936 69.7202 12.017C68.9626 11.2405 67.812 10.8523 66.2685 10.8523C64.6681 10.8523 63.4134 11.2027 62.5043 11.9034C61.5952 12.6042 60.956 13.3523 60.5866 14.1477L57.4048 13.0114C57.973 11.6856 58.7306 10.6534 59.6776 9.91477C60.634 9.16667 61.6757 8.64583 62.8026 8.35227C63.9389 8.04924 65.0563 7.89773 66.1548 7.89773C66.8556 7.89773 67.6605 7.98295 68.5696 8.15341C69.4882 8.31439 70.3736 8.65057 71.2259 9.16193C72.0876 9.6733 72.8026 10.4451 73.3707 11.4773C73.9389 12.5095 74.223 13.892 74.223 15.625V30H70.8707V27.0455H70.7003C70.473 27.5189 70.0942 28.0256 69.5639 28.5653C69.0336 29.1051 68.3281 29.5644 67.4474 29.9432C66.5668 30.322 65.492 30.5114 64.223 30.5114ZM64.7344 27.5C66.0601 27.5 67.1776 27.2396 68.0866 26.7188C69.0052 26.1979 69.6965 25.5256 70.1605 24.7017C70.634 23.8778 70.8707 23.0114 70.8707 22.1023V19.0341C70.7287 19.2045 70.4162 19.3608 69.9332 19.5028C69.4598 19.6354 68.9105 19.7538 68.2855 19.858C67.67 19.9527 67.0687 20.0379 66.4815 20.1136C65.9039 20.1799 65.4351 20.2367 65.0753 20.2841C64.2041 20.3977 63.3897 20.5824 62.6321 20.8381C61.884 21.0843 61.2779 21.4583 60.8139 21.9602C60.3594 22.4527 60.1321 23.125 60.1321 23.9773C60.1321 25.142 60.563 26.0227 61.4247 26.6193C62.2959 27.2064 63.3991 27.5 64.7344 27.5ZM89.8303 8.18182V11.0227H78.5234V8.18182H89.8303ZM81.8189 2.95455H85.1712V23.75C85.1712 24.697 85.3085 25.4072 85.5831 25.8807C85.8672 26.3447 86.227 26.6572 86.6626 26.8182C87.1077 26.9697 87.5765 27.0455 88.0689 27.0455C88.4382 27.0455 88.7412 27.0265 88.978 26.9886C89.2147 26.9413 89.4041 26.9034 89.5462 26.875L90.228 29.8864C90.0007 29.9716 89.6835 30.0568 89.2763 30.142C88.8691 30.2367 88.353 30.2841 87.728 30.2841C86.781 30.2841 85.853 30.0805 84.9439 29.6733C84.0443 29.2661 83.2962 28.6458 82.6996 27.8125C82.1125 26.9792 81.8189 25.928 81.8189 24.6591V2.95455Z" fill="black"/>
<path d="M96.5206 30H92.8274L103.509 0.90909H107.146L117.827 30H114.134L105.441 5.51136H105.214L96.5206 30ZM97.8842 18.6364H112.771V21.7614H97.8842V18.6364ZM121.904 38.1818V8.18182H125.143V11.6477H125.54C125.787 11.2689 126.128 10.786 126.563 10.1989C127.008 9.60227 127.643 9.07197 128.467 8.60795C129.3 8.13447 130.427 7.89773 131.847 7.89773C133.684 7.89773 135.304 8.35701 136.705 9.27557C138.107 10.1941 139.201 11.4962 139.987 13.1818C140.772 14.8674 141.165 16.8561 141.165 19.1477C141.165 21.4583 140.772 23.4612 139.987 25.1562C139.201 26.8419 138.112 28.1487 136.719 29.0767C135.327 29.9953 133.722 30.4545 131.904 30.4545C130.503 30.4545 129.38 30.2225 128.538 29.7585C127.695 29.285 127.046 28.75 126.592 28.1534C126.137 27.5473 125.787 27.0455 125.54 26.6477H125.256V38.1818H121.904ZM125.2 19.0909C125.2 20.7386 125.441 22.1922 125.924 23.4517C126.407 24.7017 127.112 25.6818 128.04 26.392C128.969 27.0928 130.105 27.4432 131.45 27.4432C132.851 27.4432 134.021 27.0739 134.958 26.3352C135.905 25.5871 136.615 24.5833 137.089 23.3239C137.572 22.0549 137.813 20.6439 137.813 19.0909C137.813 17.5568 137.576 16.1742 137.103 14.9432C136.639 13.7027 135.933 12.7225 134.987 12.0028C134.049 11.2737 132.87 10.9091 131.45 10.9091C130.086 10.9091 128.94 11.2547 128.012 11.946C127.084 12.6278 126.383 13.5843 125.91 14.8153C125.436 16.0369 125.2 17.4621 125.2 19.0909ZM146.279 38.1818V8.18182H149.518V11.6477H149.915C150.162 11.2689 150.503 10.786 150.938 10.1989C151.383 9.60227 152.018 9.07197 152.842 8.60795C153.675 8.13447 154.802 7.89773 156.222 7.89773C158.059 7.89773 159.679 8.35701 161.08 9.27557C162.482 10.1941 163.576 11.4962 164.362 13.1818C165.147 14.8674 165.54 16.8561 165.54 19.1477C165.54 21.4583 165.147 23.4612 164.362 25.1562C163.576 26.8419 162.487 28.1487 161.094 29.0767C159.702 29.9953 158.097 30.4545 156.279 30.4545C154.878 30.4545 153.755 30.2225 152.913 29.7585C152.07 29.285 151.421 28.75 150.967 28.1534C150.512 27.5473 150.162 27.0455 149.915 26.6477H149.631V38.1818H146.279ZM149.575 19.0909C149.575 20.7386 149.816 22.1922 150.299 23.4517C150.782 24.7017 151.487 25.6818 152.415 26.392C153.344 27.0928 154.48 27.4432 155.825 27.4432C157.226 27.4432 158.396 27.0739 159.333 26.3352C160.28 25.5871 160.99 24.5833 161.464 23.3239C161.947 22.0549 162.188 20.6439 162.188 19.0909C162.188 17.5568 161.951 16.1742 161.478 14.9432C161.014 13.7027 160.308 12.7225 159.362 12.0028C158.424 11.2737 157.245 10.9091 155.825 10.9091C154.461 10.9091 153.315 11.2547 152.387 11.946C151.459 12.6278 150.758 13.5843 150.285 14.8153C149.811 16.0369 149.575 17.4621 149.575 19.0909Z" fill="#DC1212"/>
</g>
<defs>
<filter id="filter0_d_1_5" x="0.386368" y="0.51136" width="169.154" height="45.6705" filterUnits="userSpaceOnUse" color-interpolation-filters="sRGB">
<feFlood flood-opacity="0" result="BackgroundImageFix"/>
<feColorMatrix in="SourceAlpha" type="matrix" values="0 0 0 0 0 0 0 0 0 0 0 0 0 0 0 0 0 0 127 0" result="hardAlpha"/>
<feOffset dy="4"/>
<feGaussianBlur stdDeviation="2"/>
<feComposite in2="hardAlpha" operator="out"/>
<feColorMatrix type="matrix" values="0 0 0 0 0 0 0 0 0 0 0 0 0 0 0 0 0 0 0.25 0"/>
<feBlend mode="normal" in2="BackgroundImageFix" result="effect1_dropShadow_1_5"/>
<feBlend mode="normal" in="SourceGraphic" in2="effect1_dropShadow_1_5" result="shape"/>
</filter>
</defs>
</svg>
